<svg id="svg" xmlns="http://www.w3.org/2000/svg" xmlns:xlink="http://www.w3.org/1999/xlink" width="400" height="97.08737864077669" viewBox="0, 0, 400,97.08737864077669"><g id="svgg"><path id="path0" d="M25.001 19.812 L 20.250 26.031 20.256 47.620 L 20.262 69.209 24.906 75.312 L 29.550 81.415 49.658 81.486 L 69.766 81.557 74.106 75.770 C 76.492 72.587,78.364 69.859,78.266 69.708 C 78.167 69.558,77.047 68.667,75.777 67.730 L 73.469 66.025 72.843 66.785 C 72.499 67.203,71.085 69.053,69.700 70.897 C 68.315 72.741,66.973 74.457,66.719 74.711 C 66.298 75.132,64.779 75.173,49.682 75.173 L 33.106 75.173 32.546 74.549 C 32.238 74.206,30.781 72.260,29.308 70.225 L 26.630 66.525 26.630 47.582 L 26.630 28.639 29.711 24.444 L 32.792 20.250 49.760 20.250 L 66.729 20.250 70.042 24.688 C 73.907 29.867,73.240 29.583,76.164 27.300 C 78.776 25.260,78.749 25.309,77.859 24.224 C 77.506 23.793,75.610 21.318,73.647 18.724 C 71.684 16.130,69.945 13.917,69.782 13.805 C 69.620 13.692,60.546 13.599,49.619 13.596 L 29.751 13.592 25.001 19.812 M87.447 47.642 L 87.517 81.415 90.569 81.415 L 93.620 81.415 93.759 64.886 L 93.897 48.358 97.056 44.983 L 100.214 41.609 109.261 41.619 L 118.308 41.628 121.290 43.838 L 124.272 46.047 124.272 63.800 L 124.272 81.553 127.462 81.553 L 130.652 81.553 130.652 62.197 L 130.652 42.841 125.488 39.035 L 120.324 35.229 109.293 35.229 L 98.261 35.229 96.237 37.309 C 95.123 38.454,94.110 39.390,93.986 39.390 C 93.861 39.390,93.759 33.648,93.759 26.630 L 93.759 13.870 90.568 13.870 L 87.376 13.870 87.447 47.642 M315.574 14.061 C 315.469 14.166,315.392 18.940,315.402 24.671 L 315.422 35.090 309.726 35.165 C 303.088 35.252,303.668 34.879,303.802 38.974 L 303.883 41.470 309.645 41.609 L 315.407 41.748 315.470 61.581 L 315.534 81.415 318.660 81.415 L 321.786 81.415 321.850 61.581 L 321.914 41.748 327.878 41.609 L 333.842 41.470 333.842 38.419 L 333.842 35.368 327.951 35.293 C 322.117 35.219,322.059 35.212,321.908 34.599 C 321.824 34.259,321.791 29.456,321.835 23.925 L 321.914 13.869 318.840 13.870 C 317.149 13.870,315.679 13.956,315.574 14.061 M290.767 20.883 L 289.320 22.348 289.320 24.984 L 289.320 27.620 290.846 29.126 L 292.371 30.632 293.758 29.265 L 295.146 27.899 295.146 24.965 L 295.146 22.032 293.818 20.725 C 292.207 19.137,292.506 19.121,290.767 20.883 M241.540 41.609 L 232.732 50.461 232.732 57.122 L 232.732 63.783 241.732 72.807 L 250.733 81.831 256.644 81.831 L 262.555 81.831 271.638 72.745 L 280.721 63.658 280.721 57.140 L 280.721 50.621 271.774 41.677 L 262.826 32.732 256.586 32.745 L 250.347 32.758 241.540 41.609 M143.204 39.190 L 138.419 43.120 138.419 58.399 L 138.419 73.677 143.195 77.615 L 147.971 81.553 160.740 81.553 L 173.509 81.552 175.728 79.775 L 177.947 77.999 178.086 79.707 L 178.225 81.415 181.345 81.493 L 184.466 81.572 184.466 58.391 L 184.466 35.211 181.345 35.289 L 178.225 35.368 178.086 37.526 L 177.947 39.685 175.735 37.457 L 173.522 35.229 160.755 35.244 L 147.989 35.260 143.204 39.190 M194.175 58.391 L 194.175 81.553 197.365 81.553 L 200.555 81.553 200.555 63.870 L 200.556 46.186 203.579 43.897 L 206.602 41.609 213.227 41.609 L 219.851 41.609 222.008 43.165 C 223.195 44.020,224.200 44.675,224.241 44.621 C 228.417 39.148,228.348 39.968,224.861 37.314 L 222.122 35.229 214.075 35.229 L 206.027 35.229 203.441 37.309 C 202.018 38.454,200.787 39.390,200.704 39.390 C 200.622 39.390,200.555 38.454,200.555 37.309 L 200.555 35.229 197.365 35.229 L 194.175 35.229 194.175 58.391 M289.320 58.391 L 289.320 81.553 292.233 81.553 L 295.146 81.553 295.146 58.391 L 295.146 35.229 292.233 35.229 L 289.320 35.229 289.320 58.391 M346.949 39.041 L 341.748 42.840 341.748 58.303 L 341.748 73.766 346.905 77.660 L 352.062 81.553 365.236 81.553 L 378.410 81.553 382.339 78.336 C 386.905 74.598,386.774 74.978,384.486 72.126 C 382.329 69.436,382.733 69.440,379.653 72.071 C 378.257 73.263,376.806 74.449,376.429 74.706 C 375.816 75.124,374.619 75.173,365.050 75.173 L 354.356 75.173 351.311 72.885 L 348.266 70.596 348.191 65.395 L 348.115 60.194 367.955 60.194 L 387.795 60.194 387.795 51.631 L 387.795 43.067 383.044 39.148 L 378.294 35.229 365.222 35.236 L 352.150 35.243 346.949 39.041 M267.751 45.976 L 274.896 53.117 274.896 57.143 L 274.896 61.169 267.890 68.171 L 260.884 75.173 256.588 75.173 L 252.293 75.173 245.425 68.310 L 238.558 61.447 238.558 57.147 L 238.558 52.847 245.560 45.841 L 252.562 38.835 256.584 38.835 L 260.606 38.835 267.751 45.976 M174.965 45.068 L 178.086 48.476 178.071 59.398 L 178.057 70.319 175.003 72.746 L 171.948 75.173 161.207 75.173 L 150.465 75.173 147.771 73.033 L 145.076 70.893 145.093 58.401 L 145.110 45.908 147.659 43.760 L 150.208 41.612 161.026 41.636 L 171.845 41.659 174.965 45.068 M378.761 43.840 L 381.415 46.072 381.415 50.082 L 381.415 54.092 364.771 54.092 L 348.128 54.092 348.128 50.134 L 348.128 46.177 351.110 43.912 L 354.092 41.647 365.099 41.628 L 376.106 41.609 378.761 43.840 " stroke="none" fill="#ffffff" fill-rule="evenodd"></path></g></svg>